<?xml version="1.0" encoding="UTF-8"?>
<svg id="Layer_1" xmlns="http://www.w3.org/2000/svg" version="1.1" viewBox="0 0 1063 1063">
  <!-- Generator: Adobe Illustrator 30.0.0, SVG Export Plug-In . SVG Version: 2.1.1 Build 123)  -->
  <defs>
    <style>
      .st0 {
        fill: #fff;
        opacity: .5;
      }

      .st1 {
        display: none;
      }
    </style>
  </defs>
  <path class="st0" d="M393.61,846.61v-472.15c0-28.47-8.96-53.57-26.86-75.33-17.91-21.74-46.78-32.62-86.55-32.62-33.84,0-59.95,10.88-78.35,32.62-18.42,21.76-27.6,46.86-27.6,75.33v472.15H60.85v-480.46c0-65.64,21.13-114.86,63.42-147.69,42.27-32.8,94.75-49.23,157.43-49.23s116.63,16.42,158.92,49.23c42.27,32.83,63.42,82.06,63.42,147.69v480.46h-110.42Z"/>
  <path class="st0" d="M892.18,846.61v-362.11c0-28.47-8.96-53.57-26.86-75.33-17.91-21.74-46.78-32.62-86.55-32.62-33.84,0-59.95,10.88-78.35,32.62-18.42,21.76-27.6,46.86-27.6,75.33v362.11h-113.41v-370.42c0-65.64,21.13-114.86,63.42-147.69,42.27-32.8,94.75-49.23,157.43-49.23s116.63,16.42,158.92,49.23c42.27,32.83,63.42,82.06,63.42,147.69v370.42h-110.42Z"/>
  <path class="st1" d="M110.49,1033.52v-41.3c0-4.26-1.34-8.01-4.01-11.26-2.68-3.25-6.99-4.88-12.94-4.88-5.06,0-8.96,1.63-11.71,4.88-2.75,3.25-4.13,7-4.13,11.26v41.3h-16.95v-42.54c0-9.81,3.16-17.17,9.48-22.07,6.32-4.9,14.16-7.36,23.53-7.36s17.43,2.45,23.75,7.36c6.32,4.91,9.48,12.26,9.48,22.07v42.54h-16.5Z"/>
  <path class="st1" d="M836.72,1033.52v-41.3c0-4.26-1.34-8.01-4.01-11.26-2.68-3.25-6.99-4.88-12.94-4.88-5.06,0-8.96,1.63-11.71,4.88-2.75,3.25-4.13,7-4.13,11.26v41.3h-16.95v-42.54c0-9.81,3.16-17.17,9.48-22.07,6.32-4.9,14.16-7.36,23.53-7.36s17.43,2.45,23.75,7.36c6.32,4.91,9.48,12.26,9.48,22.07v42.54h-16.5Z"/>
  <path class="st1" d="M136.23,963.64h57.61s0,13.31,0,13.31h-40.85s0,14.48,0,14.48h38.77s0,12.73,0,12.73h-38.77s0,16.04,0,16.04h41.19s0,13.31,0,13.31h-57.95s0-69.88,0-69.88Z"/>
  <path class="st1" d="M225.83,997.51l-24.01-33.87h20.13s13.56,21.73,13.56,21.73l13.56-21.73h20.12s-24.01,33.86-24.01,33.86l26.16,36.01h-20.81s-15.03-23.59-15.03-23.59l-15.03,23.58h-20.82s26.18-36.01,26.18-36.01Z"/>
  <path class="st1" d="M299.01,976.95h-22.89s0-13.31,0-13.31h62.53s0,13.32,0,13.32h-22.89s0,56.56,0,56.56h-16.75s0-56.57,0-56.57Z"/>
  <path class="st1" d="M410.2,989.99c-.74-4.89-2.73-8.62-5.96-11.2-3.23-2.58-7.11-3.87-11.66-3.87-3.74,0-6.89.73-9.45,2.2-2.57,1.46-4.55,3.39-5.97,5.77-1.41,2.39-2.4,4.91-2.98,7.59s-.87,5.35-.87,8.03c0,2.68.29,5.34.86,8.02.57,2.68,1.57,5.21,2.98,7.59,1.41,2.38,3.4,4.31,5.96,5.77,2.56,1.47,5.71,2.2,9.45,2.2,4.43,0,8.29-1.27,11.58-3.82,3.28-2.54,5.3-6.42,6.04-11.64h18.23c-.52,4.96-1.77,9.28-3.76,12.97-1.99,3.69-4.58,6.69-7.77,9-3.2,2.31-6.89,4.03-11.1,5.14-4.21,1.1-8.81,1.66-13.82,1.66-5.7,0-10.79-.72-15.25-2.16-4.46-1.44-8.28-3.66-11.44-6.66-3.17-3.01-5.59-6.86-7.25-11.55-1.67-4.7-2.5-10.21-2.5-16.54,0-6.4.83-11.93,2.51-16.59,1.67-4.66,4.09-8.49,7.26-11.49,3.16-3,6.98-5.22,11.44-6.65,4.46-1.44,9.55-2.15,15.25-2.15,4.26,0,8.32.39,12.18,1.17,3.86.78,7.51,2.19,10.96,4.2,3.45,2.03,6.36,4.94,8.72,8.76,2.36,3.82,3.83,8.57,4.4,14.24h-18.05Z"/>
  <path class="st1" d="M436.11,963.64h16.76s0,26.23,0,26.23h34.72s0-26.22,0-26.22h16.75s0,69.87,0,69.87h-16.75s0-30.34,0-30.34h-34.72s0,30.33,0,30.33h-16.76s0-69.87,0-69.87Z"/>
  <path class="st1" d="M563.04,1019.13h-28.33s-5.01,14.38-5.01,14.38h-18.05s27.12-69.87,27.12-69.87h20.21s27.11,69.88,27.11,69.88h-18.05s-5.01-14.39-5.01-14.39ZM548.88,978.72l-9.68,27.69h19.35s-9.67-27.69-9.67-27.69Z"/>
  <path class="st1" d="M593.97,963.64h16.76s0,55.98,0,55.98h37.57s0,13.9,0,13.9h-54.33s0-69.88,0-69.88Z"/>
  <path class="st1" d="M657.24,963.64h16.76s0,55.98,0,55.98h37.57s0,13.9,0,13.9h-54.33s0-69.88,0-69.88Z"/>
  <path class="st1" d="M720.21,963.64h57.61s0,13.31,0,13.31h-40.85s0,14.48,0,14.48h38.78s0,12.73,0,12.73h-38.78s0,16.04,0,16.04h41.19s0,13.31,0,13.31h-57.95s0-69.88,0-69.88Z"/>
  <path class="st1" d="M903.43,994.56h31.45s0,38.95,0,38.95h-8.47s-2.24-8.13-2.24-8.13c-2.82,3.46-6.45,6-10.89,7.63-4.43,1.63-9.43,2.45-15.02,2.45-5.7,0-10.78-.72-15.25-2.16-4.45-1.44-8.27-3.66-11.45-6.66-3.16-3.01-5.57-6.86-7.25-11.55-1.67-4.7-2.51-10.21-2.51-16.54,0-5.42.81-10.39,2.43-14.93,1.6-4.53,3.99-8.43,7.12-11.69,3.14-3.26,6.97-5.78,11.49-7.58,4.53-1.79,9.66-2.68,15.42-2.68,4.54,0,8.81.4,12.78,1.22,3.97.81,7.59,2.19,10.84,4.11,3.25,1.93,5.99,4.5,8.21,7.73,2.21,3.23,3.69,7.16,4.44,11.8h-18.65c-.58-2.16-1.42-3.98-2.55-5.48-1.12-1.5-2.4-2.69-3.84-3.58-1.43-.88-2.95-1.51-4.52-1.91-1.59-.39-3.19-.59-4.79-.59-3.63,0-6.77.68-9.42,2.06-2.65,1.37-4.79,3.19-6.43,5.47-1.65,2.29-2.84,4.81-3.59,7.59-.75,2.77-1.12,5.59-1.12,8.47,0,2.87.37,5.69,1.12,8.46.75,2.77,1.94,5.3,3.59,7.59,1.63,2.28,3.77,4.11,6.42,5.48,2.65,1.37,5.79,2.05,9.42,2.05,4.89,0,8.92-1.2,12.09-3.61,3.16-2.41,5.22-6.36,6.14-11.84h-14.95s0-12.14,0-12.14Z"/>
  <path class="st1" d="M944.93,963.64h57.6s0,13.31,0,13.31h-40.85s0,14.48,0,14.48h38.78s0,12.73,0,12.73h-38.78s0,16.04,0,16.04h41.21s0,13.31,0,13.31h-57.96s0-69.88,0-69.88Z"/>
  <rect class="st1" x="60.85" y="898.98" width="941.77" height="12.38"/>
</svg>